<svg width="150" height="17" viewBox="0 0 150 17" fill="none" xmlns="http://www.w3.org/2000/svg">
<path d="M0.56 13C0.485333 13 0.42 12.972 0.364 12.916C0.308 12.86 0.28 12.7947 0.28 12.72C0.28 12.6733 0.284667 12.622 0.294 12.566L3.766 3.508C3.80333 3.41467 3.85467 3.34 3.92 3.284C3.98533 3.228 4.08333 3.2 4.214 3.2H5.166C5.28733 3.2 5.38067 3.228 5.446 3.284C5.52067 3.34 5.57667 3.41467 5.614 3.508L9.072 12.566C9.09067 12.622 9.1 12.6733 9.1 12.72C9.1 12.7947 9.072 12.86 9.016 12.916C8.96 12.972 8.89467 13 8.82 13H8.106C7.994 13 7.91 12.972 7.854 12.916C7.80733 12.86 7.77467 12.8087 7.756 12.762L6.986 10.774H2.394L1.624 12.762C1.61467 12.8087 1.582 12.86 1.526 12.916C1.47 12.972 1.386 13 1.274 13H0.56ZM2.8 9.57H6.58L4.69 4.6L2.8 9.57ZM10.7509 13C10.6576 13 10.5782 12.972 10.5129 12.916C10.4569 12.8507 10.4289 12.7713 10.4289 12.678V3.382C10.4289 3.28867 10.4569 3.214 10.5129 3.158C10.5782 3.09267 10.6576 3.06 10.7509 3.06H11.4089C11.5116 3.06 11.5909 3.09267 11.6469 3.158C11.7029 3.214 11.7309 3.28867 11.7309 3.382V12.678C11.7309 12.7713 11.7029 12.8507 11.6469 12.916C11.5909 12.972 11.5116 13 11.4089 13H10.7509ZM14.1552 13C14.0619 13 13.9825 12.972 13.9172 12.916C13.8612 12.8507 13.8332 12.7713 13.8332 12.678V3.382C13.8332 3.28867 13.8612 3.214 13.9172 3.158C13.9825 3.09267 14.0619 3.06 14.1552 3.06H14.8132C14.9159 3.06 14.9952 3.09267 15.0512 3.158C15.1072 3.214 15.1352 3.28867 15.1352 3.382V12.678C15.1352 12.7713 15.1072 12.8507 15.0512 12.916C14.9952 12.972 14.9159 13 14.8132 13H14.1552ZM20.9771 13C20.8838 13 20.8045 12.972 20.7391 12.916C20.6831 12.8507 20.6551 12.7713 20.6551 12.678V6.056C20.6551 5.96267 20.6831 5.88333 20.7391 5.818C20.8045 5.75267 20.8838 5.72 20.9771 5.72H21.6211C21.7145 5.72 21.7938 5.75267 21.8591 5.818C21.9245 5.88333 21.9571 5.96267 21.9571 6.056V6.672C22.1438 6.35467 22.4005 6.11667 22.7271 5.958C23.0538 5.79933 23.4458 5.72 23.9031 5.72H24.4631C24.5565 5.72 24.6311 5.75267 24.6871 5.818C24.7431 5.874 24.7711 5.94867 24.7711 6.042V6.616C24.7711 6.70933 24.7431 6.784 24.6871 6.84C24.6311 6.896 24.5565 6.924 24.4631 6.924H23.6231C23.1191 6.924 22.7225 7.07333 22.4331 7.372C22.1438 7.66133 21.9991 8.058 21.9991 8.562V12.678C21.9991 12.7713 21.9665 12.8507 21.9011 12.916C21.8358 12.972 21.7565 13 21.6631 13H20.9771ZM26.2955 13C26.2022 13 26.1228 12.972 26.0575 12.916C26.0015 12.8507 25.9735 12.7713 25.9735 12.678V6.042C25.9735 5.94867 26.0015 5.874 26.0575 5.818C26.1228 5.75267 26.2022 5.72 26.2955 5.72H26.9675C27.0608 5.72 27.1355 5.75267 27.1915 5.818C27.2475 5.874 27.2755 5.94867 27.2755 6.042V12.678C27.2755 12.7713 27.2475 12.8507 27.1915 12.916C27.1355 12.972 27.0608 13 26.9675 13H26.2955ZM26.1835 4.362C26.0902 4.362 26.0108 4.334 25.9455 4.278C25.8895 4.21267 25.8615 4.13333 25.8615 4.04V3.284C25.8615 3.19067 25.8895 3.116 25.9455 3.06C26.0108 2.99467 26.0902 2.962 26.1835 2.962H27.0655C27.1588 2.962 27.2335 2.99467 27.2895 3.06C27.3548 3.116 27.3875 3.19067 27.3875 3.284V4.04C27.3875 4.13333 27.3548 4.21267 27.2895 4.278C27.2335 4.334 27.1588 4.362 27.0655 4.362H26.1835ZM32.3461 16.08C31.7115 16.08 31.1888 15.996 30.7781 15.828C30.3768 15.66 30.0595 15.4547 29.8261 15.212C29.6021 14.9787 29.4388 14.7407 29.3361 14.498C29.2428 14.2647 29.1915 14.078 29.1821 13.938C29.1728 13.8447 29.2008 13.7653 29.2661 13.7C29.3408 13.6347 29.4201 13.602 29.5041 13.602H30.1761C30.2601 13.602 30.3301 13.6207 30.3861 13.658C30.4421 13.6953 30.4888 13.7747 30.5261 13.896C30.5821 14.036 30.6661 14.19 30.7781 14.358C30.8901 14.5353 31.0628 14.6847 31.2961 14.806C31.5295 14.9367 31.8561 15.002 32.2761 15.002C32.7148 15.002 33.0835 14.9413 33.3821 14.82C33.6808 14.708 33.9048 14.5027 34.0541 14.204C34.2128 13.9147 34.2921 13.5133 34.2921 13V12.048C34.0681 12.3373 33.7741 12.58 33.4101 12.776C33.0461 12.9627 32.5888 13.056 32.0381 13.056C31.5155 13.056 31.0675 12.9673 30.6941 12.79C30.3208 12.6033 30.0128 12.356 29.7701 12.048C29.5368 11.7307 29.3595 11.3713 29.2381 10.97C29.1261 10.5687 29.0608 10.1487 29.0421 9.71C29.0328 9.44867 29.0328 9.192 29.0421 8.94C29.0608 8.50133 29.1261 8.08133 29.2381 7.68C29.3595 7.27867 29.5368 6.91933 29.7701 6.602C30.0128 6.28467 30.3208 6.03733 30.6941 5.86C31.0675 5.67333 31.5155 5.58 32.0381 5.58C32.5981 5.58 33.0601 5.68733 33.4241 5.902C33.7975 6.10733 34.1008 6.35933 34.3341 6.658V6.056C34.3341 5.96267 34.3621 5.88333 34.4181 5.818C34.4835 5.75267 34.5628 5.72 34.6561 5.72H35.3001C35.3935 5.72 35.4728 5.75267 35.5381 5.818C35.6035 5.88333 35.6361 5.96267 35.6361 6.056V12.846C35.6361 13.4713 35.5288 14.0267 35.3141 14.512C35.1088 14.9973 34.7635 15.38 34.2781 15.66C33.8021 15.94 33.1581 16.08 32.3461 16.08ZM32.3181 11.936C32.7848 11.936 33.1581 11.8287 33.4381 11.614C33.7275 11.3993 33.9375 11.1287 34.0681 10.802C34.2081 10.4753 34.2828 10.144 34.2921 9.808C34.3015 9.67733 34.3061 9.51867 34.3061 9.332C34.3061 9.136 34.3015 8.97267 34.2921 8.842C34.2828 8.506 34.2081 8.17467 34.0681 7.848C33.9375 7.52133 33.7275 7.25067 33.4381 7.036C33.1581 6.82133 32.7848 6.714 32.3181 6.714C31.8515 6.714 31.4781 6.82133 31.1981 7.036C30.9181 7.24133 30.7175 7.51667 30.5961 7.862C30.4748 8.198 30.4048 8.562 30.3861 8.954C30.3768 9.19667 30.3768 9.444 30.3861 9.696C30.4048 10.088 30.4748 10.4567 30.5961 10.802C30.7175 11.138 30.9181 11.4133 31.1981 11.628C31.4781 11.8333 31.8515 11.936 32.3181 11.936ZM40.5596 13C40.037 13 39.6123 12.902 39.2856 12.706C38.959 12.5007 38.721 12.216 38.5716 11.852C38.4223 11.4787 38.3476 11.04 38.3476 10.536V6.84H37.2556C37.1623 6.84 37.083 6.812 37.0176 6.756C36.9616 6.69067 36.9336 6.61133 36.9336 6.518V6.042C36.9336 5.94867 36.9616 5.874 37.0176 5.818C37.083 5.75267 37.1623 5.72 37.2556 5.72H38.3476V3.382C38.3476 3.28867 38.3756 3.214 38.4316 3.158C38.497 3.09267 38.5763 3.06 38.6696 3.06H39.3276C39.421 3.06 39.4956 3.09267 39.5516 3.158C39.617 3.214 39.6496 3.28867 39.6496 3.382V5.72H41.3856C41.479 5.72 41.5536 5.75267 41.6096 5.818C41.675 5.874 41.7076 5.94867 41.7076 6.042V6.518C41.7076 6.61133 41.675 6.69067 41.6096 6.756C41.5536 6.812 41.479 6.84 41.3856 6.84H39.6496V10.438C39.6496 10.8767 39.7243 11.222 39.8736 11.474C40.023 11.726 40.289 11.852 40.6716 11.852H41.5256C41.619 11.852 41.6936 11.8847 41.7496 11.95C41.815 12.006 41.8476 12.0807 41.8476 12.174V12.678C41.8476 12.7713 41.815 12.8507 41.7496 12.916C41.6936 12.972 41.619 13 41.5256 13H40.5596ZM45.7064 13.14C45.1837 13.14 44.7357 13.0747 44.3624 12.944C43.9891 12.8133 43.6857 12.6547 43.4524 12.468C43.2191 12.2813 43.0417 12.0947 42.9204 11.908C42.8084 11.7213 42.7477 11.572 42.7384 11.46C42.7291 11.3573 42.7617 11.278 42.8364 11.222C42.9111 11.166 42.9857 11.138 43.0604 11.138H43.6764C43.7324 11.138 43.7744 11.1473 43.8024 11.166C43.8397 11.1753 43.8864 11.2127 43.9424 11.278C44.0637 11.4087 44.1991 11.5393 44.3484 11.67C44.4977 11.8007 44.6797 11.908 44.8944 11.992C45.1184 12.076 45.3937 12.118 45.7204 12.118C46.1964 12.118 46.5884 12.0293 46.8964 11.852C47.2044 11.6653 47.3584 11.3947 47.3584 11.04C47.3584 10.8067 47.2931 10.62 47.1624 10.48C47.0411 10.34 46.8171 10.214 46.4904 10.102C46.1731 9.99 45.7344 9.87333 45.1744 9.752C44.6144 9.62133 44.1711 9.46267 43.8444 9.276C43.5177 9.08 43.2844 8.85133 43.1444 8.59C43.0044 8.31933 42.9344 8.016 42.9344 7.68C42.9344 7.33467 43.0371 7.00333 43.2424 6.686C43.4477 6.35933 43.7464 6.09333 44.1384 5.888C44.5397 5.68267 45.0391 5.58 45.6364 5.58C46.1217 5.58 46.5371 5.64067 46.8824 5.762C47.2277 5.88333 47.5124 6.03733 47.7364 6.224C47.9604 6.40133 48.1284 6.57867 48.2404 6.756C48.3524 6.93333 48.4131 7.08267 48.4224 7.204C48.4317 7.29733 48.4037 7.37667 48.3384 7.442C48.2731 7.498 48.1984 7.526 48.1144 7.526H47.5264C47.4611 7.526 47.4051 7.512 47.3584 7.484C47.3211 7.456 47.2837 7.42333 47.2464 7.386C47.1531 7.26467 47.0411 7.14333 46.9104 7.022C46.7891 6.90067 46.6257 6.80267 46.4204 6.728C46.2244 6.644 45.9631 6.602 45.6364 6.602C45.1697 6.602 44.8197 6.7 44.5864 6.896C44.3531 7.092 44.2364 7.33933 44.2364 7.638C44.2364 7.81533 44.2877 7.974 44.3904 8.114C44.4931 8.254 44.6891 8.38 44.9784 8.492C45.2677 8.604 45.6971 8.72533 46.2664 8.856C46.8824 8.97733 47.3677 9.14067 47.7224 9.346C48.0771 9.55133 48.3291 9.78933 48.4784 10.06C48.6277 10.3307 48.7024 10.6433 48.7024 10.998C48.7024 11.39 48.5857 11.7493 48.3524 12.076C48.1284 12.4027 47.7924 12.664 47.3444 12.86C46.9057 13.0467 46.3597 13.14 45.7064 13.14ZM54.0768 13C53.9834 13 53.9041 12.972 53.8388 12.916C53.7828 12.8507 53.7548 12.7713 53.7548 12.678V6.056C53.7548 5.96267 53.7828 5.88333 53.8388 5.818C53.9041 5.75267 53.9834 5.72 54.0768 5.72H54.7208C54.8141 5.72 54.8934 5.75267 54.9588 5.818C55.0241 5.88333 55.0568 5.96267 55.0568 6.056V6.672C55.2434 6.35467 55.5001 6.11667 55.8268 5.958C56.1534 5.79933 56.5454 5.72 57.0028 5.72H57.5628C57.6561 5.72 57.7308 5.75267 57.7868 5.818C57.8428 5.874 57.8708 5.94867 57.8708 6.042V6.616C57.8708 6.70933 57.8428 6.784 57.7868 6.84C57.7308 6.896 57.6561 6.924 57.5628 6.924H56.7228C56.2188 6.924 55.8221 7.07333 55.5328 7.372C55.2434 7.66133 55.0988 8.058 55.0988 8.562V12.678C55.0988 12.7713 55.0661 12.8507 55.0008 12.916C54.9354 12.972 54.8561 13 54.7628 13H54.0768ZM61.8344 13.14C60.8731 13.14 60.1077 12.846 59.5384 12.258C58.9691 11.6607 58.6564 10.8487 58.6004 9.822C58.5911 9.70067 58.5864 9.54667 58.5864 9.36C58.5864 9.164 58.5911 9.00533 58.6004 8.884C58.6377 8.22133 58.7917 7.64267 59.0624 7.148C59.3331 6.644 59.7017 6.25667 60.1684 5.986C60.6444 5.71533 61.1997 5.58 61.8344 5.58C62.5437 5.58 63.1364 5.72933 63.6124 6.028C64.0977 6.32667 64.4664 6.75133 64.7184 7.302C64.9704 7.85267 65.0964 8.49667 65.0964 9.234V9.472C65.0964 9.57467 65.0637 9.654 64.9984 9.71C64.9424 9.766 64.8677 9.794 64.7744 9.794H59.9304C59.9304 9.80333 59.9304 9.822 59.9304 9.85C59.9304 9.878 59.9304 9.90133 59.9304 9.92C59.9491 10.3027 60.0331 10.662 60.1824 10.998C60.3317 11.3247 60.5464 11.5907 60.8264 11.796C61.1064 12.0013 61.4424 12.104 61.8344 12.104C62.1704 12.104 62.4504 12.0527 62.6744 11.95C62.8984 11.8473 63.0804 11.7353 63.2204 11.614C63.3604 11.4833 63.4537 11.3853 63.5004 11.32C63.5844 11.1987 63.6497 11.1287 63.6964 11.11C63.7431 11.082 63.8177 11.068 63.9204 11.068H64.5924C64.6857 11.068 64.7604 11.096 64.8164 11.152C64.8817 11.1987 64.9097 11.2687 64.9004 11.362C64.8911 11.502 64.8164 11.6747 64.6764 11.88C64.5364 12.076 64.3357 12.272 64.0744 12.468C63.8131 12.664 63.4957 12.8273 63.1224 12.958C62.7491 13.0793 62.3197 13.14 61.8344 13.14ZM59.9304 8.828H63.7664V8.786C63.7664 8.366 63.6871 7.99267 63.5284 7.666C63.3791 7.33933 63.1597 7.08267 62.8704 6.896C62.5811 6.7 62.2357 6.602 61.8344 6.602C61.4331 6.602 61.0877 6.7 60.7984 6.896C60.5184 7.08267 60.3037 7.33933 60.1544 7.666C60.0051 7.99267 59.9304 8.366 59.9304 8.786V8.828ZM69.2904 13.14C68.7677 13.14 68.3197 13.0747 67.9464 12.944C67.573 12.8133 67.2697 12.6547 67.0364 12.468C66.803 12.2813 66.6257 12.0947 66.5044 11.908C66.3924 11.7213 66.3317 11.572 66.3224 11.46C66.313 11.3573 66.3457 11.278 66.4204 11.222C66.495 11.166 66.5697 11.138 66.6444 11.138H67.2604C67.3164 11.138 67.3584 11.1473 67.3864 11.166C67.4237 11.1753 67.4704 11.2127 67.5264 11.278C67.6477 11.4087 67.783 11.5393 67.9324 11.67C68.0817 11.8007 68.2637 11.908 68.4784 11.992C68.7024 12.076 68.9777 12.118 69.3044 12.118C69.7804 12.118 70.1724 12.0293 70.4804 11.852C70.7884 11.6653 70.9424 11.3947 70.9424 11.04C70.9424 10.8067 70.877 10.62 70.7464 10.48C70.625 10.34 70.401 10.214 70.0744 10.102C69.757 9.99 69.3184 9.87333 68.7584 9.752C68.1984 9.62133 67.755 9.46267 67.4284 9.276C67.1017 9.08 66.8684 8.85133 66.7284 8.59C66.5884 8.31933 66.5184 8.016 66.5184 7.68C66.5184 7.33467 66.621 7.00333 66.8264 6.686C67.0317 6.35933 67.3304 6.09333 67.7224 5.888C68.1237 5.68267 68.623 5.58 69.2204 5.58C69.7057 5.58 70.121 5.64067 70.4664 5.762C70.8117 5.88333 71.0964 6.03733 71.3204 6.224C71.5444 6.40133 71.7124 6.57867 71.8244 6.756C71.9364 6.93333 71.997 7.08267 72.0064 7.204C72.0157 7.29733 71.9877 7.37667 71.9224 7.442C71.857 7.498 71.7824 7.526 71.6984 7.526H71.1104C71.045 7.526 70.989 7.512 70.9424 7.484C70.905 7.456 70.8677 7.42333 70.8304 7.386C70.737 7.26467 70.625 7.14333 70.4944 7.022C70.373 6.90067 70.2097 6.80267 70.0044 6.728C69.8084 6.644 69.547 6.602 69.2204 6.602C68.7537 6.602 68.4037 6.7 68.1704 6.896C67.937 7.092 67.8204 7.33933 67.8204 7.638C67.8204 7.81533 67.8717 7.974 67.9744 8.114C68.077 8.254 68.273 8.38 68.5624 8.492C68.8517 8.604 69.281 8.72533 69.8504 8.856C70.4664 8.97733 70.9517 9.14067 71.3064 9.346C71.661 9.55133 71.913 9.78933 72.0624 10.06C72.2117 10.3307 72.2864 10.6433 72.2864 10.998C72.2864 11.39 72.1697 11.7493 71.9364 12.076C71.7124 12.4027 71.3764 12.664 70.9284 12.86C70.4897 13.0467 69.9437 13.14 69.2904 13.14ZM76.8051 13.14C75.8438 13.14 75.0784 12.846 74.5091 12.258C73.9398 11.6607 73.6271 10.8487 73.5711 9.822C73.5618 9.70067 73.5571 9.54667 73.5571 9.36C73.5571 9.164 73.5618 9.00533 73.5711 8.884C73.6084 8.22133 73.7624 7.64267 74.0331 7.148C74.3038 6.644 74.6724 6.25667 75.1391 5.986C75.6151 5.71533 76.1704 5.58 76.8051 5.58C77.5144 5.58 78.1071 5.72933 78.5831 6.028C79.0684 6.32667 79.4371 6.75133 79.6891 7.302C79.9411 7.85267 80.0671 8.49667 80.0671 9.234V9.472C80.0671 9.57467 80.0344 9.654 79.9691 9.71C79.9131 9.766 79.8384 9.794 79.7451 9.794H74.9011C74.9011 9.80333 74.9011 9.822 74.9011 9.85C74.9011 9.878 74.9011 9.90133 74.9011 9.92C74.9198 10.3027 75.0038 10.662 75.1531 10.998C75.3024 11.3247 75.5171 11.5907 75.7971 11.796C76.0771 12.0013 76.4131 12.104 76.8051 12.104C77.1411 12.104 77.4211 12.0527 77.6451 11.95C77.8691 11.8473 78.0511 11.7353 78.1911 11.614C78.3311 11.4833 78.4244 11.3853 78.4711 11.32C78.5551 11.1987 78.6204 11.1287 78.6671 11.11C78.7138 11.082 78.7884 11.068 78.8911 11.068H79.5631C79.6564 11.068 79.7311 11.096 79.7871 11.152C79.8524 11.1987 79.8804 11.2687 79.8711 11.362C79.8618 11.502 79.7871 11.6747 79.6471 11.88C79.5071 12.076 79.3064 12.272 79.0451 12.468C78.7838 12.664 78.4664 12.8273 78.0931 12.958C77.7198 13.0793 77.2904 13.14 76.8051 13.14ZM74.9011 8.828H78.7371V8.786C78.7371 8.366 78.6578 7.99267 78.4991 7.666C78.3498 7.33933 78.1304 7.08267 77.8411 6.896C77.5518 6.7 77.2064 6.602 76.8051 6.602C76.4038 6.602 76.0584 6.7 75.7691 6.896C75.4891 7.08267 75.2744 7.33933 75.1251 7.666C74.9758 7.99267 74.9011 8.366 74.9011 8.786V8.828ZM82.0631 13C81.9697 13 81.8904 12.972 81.8251 12.916C81.7691 12.8507 81.7411 12.7713 81.7411 12.678V6.056C81.7411 5.96267 81.7691 5.88333 81.8251 5.818C81.8904 5.75267 81.9697 5.72 82.0631 5.72H82.7071C82.8004 5.72 82.8797 5.75267 82.9451 5.818C83.0104 5.88333 83.0431 5.96267 83.0431 6.056V6.672C83.2297 6.35467 83.4864 6.11667 83.8131 5.958C84.1397 5.79933 84.5317 5.72 84.9891 5.72H85.5491C85.6424 5.72 85.7171 5.75267 85.7731 5.818C85.8291 5.874 85.8571 5.94867 85.8571 6.042V6.616C85.8571 6.70933 85.8291 6.784 85.7731 6.84C85.7171 6.896 85.6424 6.924 85.5491 6.924H84.7091C84.2051 6.924 83.8084 7.07333 83.5191 7.372C83.2297 7.66133 83.0851 8.058 83.0851 8.562V12.678C83.0851 12.7713 83.0524 12.8507 82.9871 12.916C82.9217 12.972 82.8424 13 82.7491 13H82.0631ZM89.5934 13C89.4534 13 89.3414 12.9673 89.2574 12.902C89.1828 12.8367 89.1221 12.7527 89.0754 12.65L86.4854 6.154C86.4668 6.10733 86.4574 6.06067 86.4574 6.014C86.4574 5.93 86.4854 5.86 86.5414 5.804C86.5974 5.748 86.6674 5.72 86.7514 5.72H87.4234C87.5261 5.72 87.6054 5.748 87.6614 5.804C87.7174 5.86 87.7501 5.91133 87.7594 5.958L89.9014 11.474L92.0294 5.958C92.0481 5.91133 92.0808 5.86 92.1274 5.804C92.1834 5.748 92.2628 5.72 92.3654 5.72H93.0514C93.1261 5.72 93.1914 5.748 93.2474 5.804C93.3128 5.86 93.3454 5.93 93.3454 6.014C93.3454 6.06067 93.3361 6.10733 93.3174 6.154L90.7134 12.65C90.6761 12.7527 90.6154 12.8367 90.5314 12.902C90.4568 12.9673 90.3448 13 90.1954 13H89.5934ZM97.4496 13.14C96.4883 13.14 95.723 12.846 95.1536 12.258C94.5843 11.6607 94.2716 10.8487 94.2156 9.822C94.2063 9.70067 94.2016 9.54667 94.2016 9.36C94.2016 9.164 94.2063 9.00533 94.2156 8.884C94.253 8.22133 94.407 7.64267 94.6776 7.148C94.9483 6.644 95.317 6.25667 95.7836 5.986C96.2596 5.71533 96.815 5.58 97.4496 5.58C98.159 5.58 98.7516 5.72933 99.2276 6.028C99.713 6.32667 100.082 6.75133 100.334 7.302C100.586 7.85267 100.712 8.49667 100.712 9.234V9.472C100.712 9.57467 100.679 9.654 100.614 9.71C100.558 9.766 100.483 9.794 100.39 9.794H95.5456C95.5456 9.80333 95.5456 9.822 95.5456 9.85C95.5456 9.878 95.5456 9.90133 95.5456 9.92C95.5643 10.3027 95.6483 10.662 95.7976 10.998C95.947 11.3247 96.1616 11.5907 96.4416 11.796C96.7216 12.0013 97.0576 12.104 97.4496 12.104C97.7856 12.104 98.0656 12.0527 98.2896 11.95C98.5136 11.8473 98.6956 11.7353 98.8356 11.614C98.9756 11.4833 99.069 11.3853 99.1156 11.32C99.1996 11.1987 99.265 11.1287 99.3116 11.11C99.3583 11.082 99.433 11.068 99.5356 11.068H100.208C100.301 11.068 100.376 11.096 100.432 11.152C100.497 11.1987 100.525 11.2687 100.516 11.362C100.506 11.502 100.432 11.6747 100.292 11.88C100.152 12.076 99.951 12.272 99.6896 12.468C99.4283 12.664 99.111 12.8273 98.7376 12.958C98.3643 13.0793 97.935 13.14 97.4496 13.14ZM95.5456 8.828H99.3816V8.786C99.3816 8.366 99.3023 7.99267 99.1436 7.666C98.9943 7.33933 98.775 7.08267 98.4856 6.896C98.1963 6.7 97.851 6.602 97.4496 6.602C97.0483 6.602 96.703 6.7 96.4136 6.896C96.1336 7.08267 95.919 7.33933 95.7696 7.666C95.6203 7.99267 95.5456 8.366 95.5456 8.786V8.828ZM105.046 13.14C104.532 13.14 104.089 13.0513 103.716 12.874C103.342 12.6873 103.034 12.44 102.792 12.132C102.558 11.8147 102.381 11.4553 102.26 11.054C102.148 10.6527 102.082 10.228 102.064 9.78C102.054 9.63067 102.05 9.49067 102.05 9.36C102.05 9.22933 102.054 9.08933 102.064 8.94C102.082 8.50133 102.148 8.08133 102.26 7.68C102.381 7.27867 102.558 6.91933 102.792 6.602C103.034 6.28467 103.342 6.03733 103.716 5.86C104.089 5.67333 104.532 5.58 105.046 5.58C105.596 5.58 106.054 5.678 106.418 5.874C106.782 6.07 107.08 6.31267 107.314 6.602V3.382C107.314 3.28867 107.342 3.214 107.398 3.158C107.463 3.09267 107.542 3.06 107.636 3.06H108.308C108.401 3.06 108.476 3.09267 108.532 3.158C108.597 3.214 108.63 3.28867 108.63 3.382V12.678C108.63 12.7713 108.597 12.8507 108.532 12.916C108.476 12.972 108.401 13 108.308 13H107.678C107.575 13 107.496 12.972 107.44 12.916C107.384 12.8507 107.356 12.7713 107.356 12.678V12.09C107.122 12.3887 106.819 12.6407 106.446 12.846C106.072 13.042 105.606 13.14 105.046 13.14ZM105.34 12.006C105.806 12.006 106.18 11.8987 106.46 11.684C106.74 11.4693 106.95 11.1987 107.09 10.872C107.23 10.536 107.304 10.1953 107.314 9.85C107.323 9.70067 107.328 9.52333 107.328 9.318C107.328 9.10333 107.323 8.92133 107.314 8.772C107.304 8.44533 107.225 8.12333 107.076 7.806C106.936 7.48867 106.721 7.22733 106.432 7.022C106.152 6.81667 105.788 6.714 105.34 6.714C104.864 6.714 104.486 6.82133 104.206 7.036C103.926 7.24133 103.725 7.51667 103.604 7.862C103.482 8.198 103.412 8.562 103.394 8.954C103.384 9.22467 103.384 9.49533 103.394 9.766C103.412 10.158 103.482 10.5267 103.604 10.872C103.725 11.208 103.926 11.4833 104.206 11.698C104.486 11.9033 104.864 12.006 105.34 12.006Z" fill="white"/>
<path d="M117.008 13C116.915 13 116.835 12.972 116.77 12.916C116.714 12.8507 116.686 12.7713 116.686 12.678V12.23C116.686 12.146 116.709 12.0527 116.756 11.95C116.803 11.8473 116.896 11.7353 117.036 11.614L120.004 8.646C120.48 8.24467 120.853 7.904 121.124 7.624C121.404 7.33467 121.6 7.05933 121.712 6.798C121.833 6.53667 121.894 6.266 121.894 5.986C121.894 5.454 121.745 5.034 121.446 4.726C121.147 4.40867 120.704 4.25 120.116 4.25C119.743 4.25 119.421 4.32933 119.15 4.488C118.879 4.63733 118.665 4.84733 118.506 5.118C118.357 5.37933 118.259 5.678 118.212 6.014C118.193 6.13533 118.142 6.21933 118.058 6.266C117.983 6.31267 117.913 6.336 117.848 6.336H117.12C117.036 6.336 116.966 6.31267 116.91 6.266C116.854 6.21 116.826 6.14467 116.826 6.07C116.835 5.71533 116.91 5.36067 117.05 5.006C117.19 4.642 117.395 4.31533 117.666 4.026C117.946 3.73667 118.287 3.50333 118.688 3.326C119.099 3.13933 119.575 3.046 120.116 3.046C120.853 3.046 121.455 3.18133 121.922 3.452C122.398 3.71333 122.748 4.06333 122.972 4.502C123.196 4.94067 123.308 5.42133 123.308 5.944C123.308 6.35467 123.238 6.73267 123.098 7.078C122.958 7.414 122.753 7.74533 122.482 8.072C122.221 8.38933 121.894 8.716 121.502 9.052L118.814 11.782H123.182C123.285 11.782 123.364 11.81 123.42 11.866C123.485 11.922 123.518 12.0013 123.518 12.104V12.678C123.518 12.7713 123.485 12.8507 123.42 12.916C123.364 12.972 123.285 13 123.182 13H117.008ZM128.655 13.14C128.011 13.14 127.465 13.042 127.017 12.846C126.578 12.6407 126.219 12.3607 125.939 12.006C125.659 11.6513 125.453 11.2453 125.323 10.788C125.201 10.3307 125.131 9.84533 125.113 9.332C125.103 9.08 125.094 8.814 125.085 8.534C125.085 8.254 125.085 7.974 125.085 7.694C125.094 7.40467 125.103 7.12933 125.113 6.868C125.122 6.35467 125.192 5.86933 125.323 5.412C125.463 4.94533 125.668 4.53933 125.939 4.194C126.219 3.83933 126.583 3.564 127.031 3.368C127.479 3.16267 128.02 3.06 128.655 3.06C129.299 3.06 129.84 3.16267 130.279 3.368C130.727 3.564 131.091 3.83933 131.371 4.194C131.651 4.53933 131.856 4.94533 131.987 5.412C132.127 5.86933 132.201 6.35467 132.211 6.868C132.22 7.12933 132.225 7.40467 132.225 7.694C132.234 7.974 132.234 8.254 132.225 8.534C132.225 8.814 132.22 9.08 132.211 9.332C132.201 9.84533 132.127 10.3307 131.987 10.788C131.856 11.2453 131.651 11.6513 131.371 12.006C131.1 12.3607 130.741 12.6407 130.293 12.846C129.854 13.042 129.308 13.14 128.655 13.14ZM128.655 11.95C129.383 11.95 129.919 11.712 130.265 11.236C130.619 10.7507 130.801 10.0927 130.811 9.262C130.829 8.99133 130.839 8.73 130.839 8.478C130.839 8.21667 130.839 7.96 130.839 7.708C130.839 7.44667 130.829 7.19 130.811 6.938C130.801 6.126 130.619 5.47733 130.265 4.992C129.919 4.49733 129.383 4.25 128.655 4.25C127.936 4.25 127.399 4.49733 127.045 4.992C126.699 5.47733 126.517 6.126 126.499 6.938C126.499 7.19 126.494 7.44667 126.485 7.708C126.485 7.96 126.485 8.21667 126.485 8.478C126.494 8.73 126.499 8.99133 126.499 9.262C126.517 10.0927 126.704 10.7507 127.059 11.236C127.413 11.712 127.945 11.95 128.655 11.95ZM134.112 13C134.018 13 133.939 12.972 133.874 12.916C133.818 12.8507 133.79 12.7713 133.79 12.678V12.23C133.79 12.146 133.813 12.0527 133.86 11.95C133.906 11.8473 134 11.7353 134.14 11.614L137.108 8.646C137.584 8.24467 137.957 7.904 138.228 7.624C138.508 7.33467 138.704 7.05933 138.816 6.798C138.937 6.53667 138.998 6.266 138.998 5.986C138.998 5.454 138.848 5.034 138.55 4.726C138.251 4.40867 137.808 4.25 137.22 4.25C136.846 4.25 136.524 4.32933 136.254 4.488C135.983 4.63733 135.768 4.84733 135.61 5.118C135.46 5.37933 135.362 5.678 135.316 6.014C135.297 6.13533 135.246 6.21933 135.162 6.266C135.087 6.31267 135.017 6.336 134.952 6.336H134.224C134.14 6.336 134.07 6.31267 134.014 6.266C133.958 6.21 133.93 6.14467 133.93 6.07C133.939 5.71533 134.014 5.36067 134.154 5.006C134.294 4.642 134.499 4.31533 134.77 4.026C135.05 3.73667 135.39 3.50333 135.792 3.326C136.202 3.13933 136.678 3.046 137.22 3.046C137.957 3.046 138.559 3.18133 139.026 3.452C139.502 3.71333 139.852 4.06333 140.076 4.502C140.3 4.94067 140.412 5.42133 140.412 5.944C140.412 6.35467 140.342 6.73267 140.202 7.078C140.062 7.414 139.856 7.74533 139.586 8.072C139.324 8.38933 138.998 8.716 138.606 9.052L135.918 11.782H140.286C140.388 11.782 140.468 11.81 140.524 11.866C140.589 11.922 140.622 12.0013 140.622 12.104V12.678C140.622 12.7713 140.589 12.8507 140.524 12.916C140.468 12.972 140.388 13 140.286 13H134.112ZM142.328 13C142.235 13 142.156 12.972 142.09 12.916C142.034 12.8507 142.006 12.7713 142.006 12.678V12.23C142.006 12.146 142.03 12.0527 142.076 11.95C142.123 11.8473 142.216 11.7353 142.356 11.614L145.324 8.646C145.8 8.24467 146.174 7.904 146.444 7.624C146.724 7.33467 146.92 7.05933 147.032 6.798C147.154 6.53667 147.214 6.266 147.214 5.986C147.214 5.454 147.065 5.034 146.766 4.726C146.468 4.40867 146.024 4.25 145.436 4.25C145.063 4.25 144.741 4.32933 144.47 4.488C144.2 4.63733 143.985 4.84733 143.826 5.118C143.677 5.37933 143.579 5.678 143.532 6.014C143.514 6.13533 143.462 6.21933 143.378 6.266C143.304 6.31267 143.234 6.336 143.168 6.336H142.44C142.356 6.336 142.286 6.31267 142.23 6.266C142.174 6.21 142.146 6.14467 142.146 6.07C142.156 5.71533 142.23 5.36067 142.37 5.006C142.51 4.642 142.716 4.31533 142.986 4.026C143.266 3.73667 143.607 3.50333 144.008 3.326C144.419 3.13933 144.895 3.046 145.436 3.046C146.174 3.046 146.776 3.18133 147.242 3.452C147.718 3.71333 148.068 4.06333 148.292 4.502C148.516 4.94067 148.628 5.42133 148.628 5.944C148.628 6.35467 148.558 6.73267 148.418 7.078C148.278 7.414 148.073 7.74533 147.802 8.072C147.541 8.38933 147.214 8.716 146.822 9.052L144.134 11.782H148.502C148.605 11.782 148.684 11.81 148.74 11.866C148.806 11.922 148.838 12.0013 148.838 12.104V12.678C148.838 12.7713 148.806 12.8507 148.74 12.916C148.684 12.972 148.605 13 148.502 13H142.328Z" fill="white"/>
</svg>
